<svg width="24" height="24" viewBox="0 0 24 24" fill="none" xmlns="http://www.w3.org/2000/svg">
<g id="Pressure">
<path id="Icon" fill-rule="evenodd" clip-rule="evenodd" d="M2.24902 12C2.24902 6.61479 6.61381 2.25 11.999 2.25C17.3842 2.25 21.749 6.61479 21.749 12C21.749 17.3852 17.3842 21.75 11.999 21.75C6.61381 21.75 2.24902 17.3852 2.24902 12ZM3.78265 11.25H5.00002C5.41424 11.25 5.75002 11.5858 5.75002 12C5.75002 12.4142 5.41424 12.75 5.00002 12.75H3.78265C3.93719 14.4655 4.61672 16.0294 5.65937 17.28L7.10969 15.8297C7.40259 15.5368 7.87746 15.5368 8.17035 15.8297C8.46325 16.1226 8.46325 16.5974 8.17035 16.8903L6.72012 18.3406C8.15062 19.5328 9.99097 20.25 11.999 20.25C14.0076 20.25 15.8484 19.5324 17.279 18.3397L15.7097 16.7703C15.4168 16.4774 15.4168 16.0026 15.7097 15.7097C16.0026 15.4168 16.4775 15.4168 16.7704 15.7097L18.3396 17.2789C19.3817 16.0285 20.0609 14.465 20.2154 12.75H19C18.5858 12.75 18.25 12.4142 18.25 12C18.25 11.5858 18.5858 11.25 19 11.25H20.2154C20.0609 9.53504 19.3817 7.97149 18.3396 6.72109L16.7704 8.29033C16.4775 8.58322 16.0026 8.58322 15.7097 8.29033C15.4168 7.99744 15.4168 7.52256 15.7097 7.22967L17.279 5.66034C16.0287 4.6179 14.4651 3.93843 12.75 3.78371V5.44C12.75 5.85421 12.4142 6.19 12 6.19C11.5858 6.19 11.25 5.85421 11.25 5.44V3.78353C9.53467 3.93786 7.97076 4.6171 6.72012 5.65943L8.29035 7.22967C8.58325 7.52256 8.58325 7.99744 8.29035 8.29033C7.99746 8.58322 7.52259 8.58322 7.22969 8.29033L5.65937 6.72C4.61672 7.97058 3.93719 9.53454 3.78265 11.25ZM14.0479 9.60955C14.0481 9.60957 14.0483 9.60959 13.975 10.356C14.7214 10.2827 14.7215 10.2829 14.7215 10.2831L14.7216 10.2845L14.7219 10.2872L14.7226 10.2951L14.7249 10.3212C14.7267 10.3431 14.7291 10.3737 14.7316 10.4122C14.7368 10.489 14.7427 10.5975 14.7463 10.7298C14.7536 10.9932 14.7521 11.358 14.7162 11.7602C14.6492 12.5095 14.4465 13.6082 13.7444 14.3103C12.7165 15.3382 11.0486 15.3382 10.0207 14.3103C8.9928 13.2824 8.9928 11.6146 10.0207 10.5867C10.7228 9.88453 11.8215 9.68186 12.5709 9.61486C12.9731 9.57889 13.3378 9.57744 13.6012 9.58471C13.7336 9.58836 13.842 9.59426 13.9188 9.59939C13.9573 9.60196 13.9879 9.60434 14.0098 9.60616L14.0359 9.60843L14.0439 9.60916L14.0465 9.60942L14.0479 9.60955ZM13.975 10.356L14.7215 10.2831C14.6865 9.92681 14.4042 9.64452 14.0479 9.60955L13.975 10.356ZM13.2492 11.0818C13.0841 11.0839 12.8986 11.0915 12.7044 11.1089C11.9915 11.1726 11.3782 11.3505 11.0814 11.6473C10.6392 12.0894 10.6392 12.8076 11.0814 13.2497C11.5235 13.6918 12.2416 13.6918 12.6837 13.2497C12.9806 12.9528 13.1584 12.3395 13.2221 11.6266C13.2395 11.4324 13.2471 11.247 13.2492 11.0818Z" fill="#730641"/>
</g>
</svg>
